<svg width="800" height="1000" viewBox="0 0 800 1000" xmlns="http://www.w3.org/2000/svg">
  <defs>
    <pattern id="dots" width="20" height="20" patternUnits="userSpaceOnUse">
      <circle cx="10" cy="10" r="1.5" fill="#B38E6A" />
    </pattern>
    <pattern id="lines" patternUnits="userSpaceOnUse" width="40" height="40">
      <path d="M 0,20 L 40,20" stroke="#B38E6A" stroke-width="0.5" stroke-dasharray="1,3" />
      <path d="M 20,0 L 20,40" stroke="#B38E6A" stroke-width="0.5" stroke-dasharray="1,3" />
    </pattern>
  </defs>
  <rect width="100%" height="100%" fill="url(#dots)" />
  <g transform="rotate(45 400 500)">
    <rect x="200" y="300" width="400" height="400" rx="50" fill="none" stroke="#B38E6A" stroke-width="0.5" />
    <rect x="250" y="350" width="300" height="300" rx="30" fill="none" stroke="#B38E6A" stroke-width="0.5" />
  </g>
  <rect x="0" y="0" width="800" height="1000" fill="url(#lines)" opacity="0.5" />
  <path d="M 0,150 Q 400,0 800,150" fill="none" stroke="#B38E6A" stroke-width="0.5" />
  <path d="M 0,850 Q 400,1000 800,850" fill="none" stroke="#B38E6A" stroke-width="0.5" />
  <path d="M 100,0 Q 200,500 100,1000" fill="none" stroke="#B38E6A" stroke-width="0.5" />
  <path d="M 700,0 Q 600,500 700,1000" fill="none" stroke="#B38E6A" stroke-width="0.5" />
</svg> 